<?xml version="1.0" standalone="no"?>
<!DOCTYPE svg PUBLIC "-//W3C//DTD SVG 20010904//EN"
 "http://www.w3.org/TR/2001/REC-SVG-20010904/DTD/svg10.dtd">
<svg version="1.0" xmlns="http://www.w3.org/2000/svg"
 width="1351.000000pt" height="605.000000pt" viewBox="0 0 1351.000000 605.000000"
 preserveAspectRatio="xMidYMid meet">
<metadata>
Created by potrace 1.16, written by Peter Selinger 2001-2019
</metadata>
<g transform="translate(0.000000,605.000000) scale(0.100000,-0.100000)"
fill="#000000" stroke="none">
<path d="M0 3025 l0 -3025 6755 0 6755 0 0 3025 0 3025 -6755 0 -6755 0 0
-3025z m4585 2864 c308 -6 600 -14 648 -17 l88 -7 -249 -390 c-136 -214 -354
-556 -484 -760 -396 -622 -709 -1111 -835 -1305 -66 -102 -205 -315 -308 -475
-104 -159 -232 -356 -284 -437 -53 -81 -184 -284 -291 -450 -107 -166 -283
-436 -390 -600 l-195 -299 -220 -105 c-750 -360 -1002 -482 -1360 -656 -401
-195 -435 -211 -435 -203 0 7 90 154 295 480 104 165 266 424 360 575 211 337
402 639 522 825 50 77 175 273 279 435 103 162 239 376 302 475 64 99 145 227
182 285 99 157 483 760 560 880 37 58 174 274 305 480 131 206 327 512 435
680 108 168 238 371 290 453 l94 147 66 0 c36 0 317 -5 625 -11z m2803 -55
c294 -5 372 -9 372 -19 0 -7 -170 -269 -378 -582 -1042 -1564 -2523 -3797
-2643 -3984 -47 -74 -51 -77 -95 -83 -86 -11 -1304 -7 -1304 5 0 13 150 246
474 734 132 201 313 475 401 610 238 365 420 643 733 1117 154 234 355 540
445 680 175 270 310 478 668 1028 124 190 246 380 273 422 26 42 55 78 63 80
21 4 509 0 991 -8z m2120 -50 l282 -6 0 -42 c0 -22 -5 -122 -10 -221 -6 -99
-19 -355 -30 -570 -11 -214 -31 -608 -45 -875 -54 -1045 -85 -1655 -95 -1880
-19 -420 -40 -843 -46 -923 l-6 -77 -474 0 -474 0 0 73 c0 39 9 338 20 662 11
325 29 865 40 1200 11 336 27 790 35 1010 8 220 15 440 15 489 l0 89 -319
-474 c-345 -512 -1038 -1543 -1456 -2166 -428 -637 -598 -888 -609 -895 -18
-12 -1306 -10 -1306 2 0 6 224 344 497 753 453 676 2394 3589 2522 3784 l54
83 561 -5 c309 -3 688 -8 844 -11z m2476 -34 c412 -5 751 -12 754 -14 6 -7
-23 -44 -323 -422 -132 -165 -377 -474 -545 -685 -300 -376 -350 -438 -660
-809 -85 -102 -166 -200 -178 -217 l-23 -33 39 0 c22 0 269 18 549 40 889 69
1593 110 1593 93 0 -10 -93 -99 -570 -548 -428 -404 -731 -687 -950 -890 -113
-104 -273 -253 -355 -330 -83 -77 -241 -223 -350 -325 -110 -102 -247 -230
-305 -285 -289 -275 -1125 -1045 -1135 -1045 -9 0 18 49 143 260 139 235 943
1575 1176 1960 l166 275 -525 3 -525 2 0 23 c0 13 20 388 45 833 24 445 53
989 65 1209 27 522 50 896 56 914 4 12 87 13 557 7 303 -4 889 -11 1301 -16z"/>
<path d="M3849 5638 c-131 -207 -185 -293 -321 -503 -61 -93 -205 -321 -322
-505 -293 -463 -447 -705 -674 -1060 -304 -474 -785 -1229 -890 -1395 -52 -82
-139 -217 -192 -300 -53 -82 -174 -274 -269 -425 -95 -151 -277 -441 -405
-645 -128 -203 -232 -371 -230 -373 2 -4 47 17 349 163 88 43 210 101 270 130
61 29 205 99 320 155 235 115 456 221 620 299 l110 52 186 287 c103 158 305
469 449 692 145 223 311 478 369 567 58 90 140 216 182 280 128 196 564 875
699 1088 190 299 950 1490 999 1565 l42 65 -333 6 c-183 4 -451 10 -594 13
l-262 6 -103 -162z"/>
<path d="M6405 5679 c-35 -58 -143 -223 -422 -649 -100 -154 -502 -774 -599
-925 -32 -49 -193 -295 -358 -545 -164 -250 -342 -520 -394 -600 -306 -467
-519 -791 -700 -1065 -362 -547 -413 -627 -408 -632 3 -3 252 -2 554 2 l549 7
259 391 c142 215 368 556 501 757 284 430 1160 1749 1766 2658 236 354 427
646 424 648 -2 2 -258 7 -569 11 l-565 6 -38 -64z"/>
<path d="M7883 5277 c-1002 -1506 -1590 -2389 -2096 -3144 l-578 -863 344 0
c189 0 431 3 539 7 l195 6 182 271 c355 528 1525 2268 1832 2726 172 256 323
477 337 492 60 65 158 37 185 -52 2 -8 0 -116 -4 -240 -4 -124 -15 -434 -24
-690 -8 -256 -26 -789 -40 -1185 -13 -396 -27 -808 -30 -915 -3 -107 -8 -241
-11 -297 l-6 -103 376 0 376 0 4 23 c3 12 14 238 26 502 11 264 27 606 35 760
8 154 33 638 55 1075 22 437 47 910 55 1050 24 438 48 970 43 975 -2 3 -324 7
-714 10 -390 3 -730 7 -755 10 l-46 4 -280 -422z"/>
<path d="M10216 5603 c-6 -68 -22 -356 -51 -913 -17 -323 -33 -620 -70 -1303
-14 -247 -25 -461 -25 -478 l0 -29 470 0 c528 0 529 0 556 -65 25 -62 20 -72
-259 -530 -96 -156 -216 -356 -558 -925 -86 -142 -150 -250 -257 -429 l-73
-125 108 99 c178 164 363 336 633 590 140 132 316 296 390 365 466 428 789
730 1470 1371 179 169 340 319 358 334 18 15 31 29 29 31 -6 7 -748 -43 -1358
-91 -424 -33 -576 -41 -603 -34 -52 14 -70 48 -67 121 1 30 36 75 356 458 221
265 483 589 862 1070 111 140 249 314 306 385 58 72 103 131 102 133 -1 1
-364 7 -806 12 -442 5 -962 12 -1155 15 l-352 6 -6 -68z"/>
</g>
</svg>
